<?xml version="1.0" encoding="utf-8"?>
<!-- Generator: Adobe Illustrator 15.0.0, SVG Export Plug-In . SVG Version: 6.00 Build 0)  -->
<!DOCTYPE svg PUBLIC "-//W3C//DTD SVG 1.1//EN" "http://www.w3.org/Graphics/SVG/1.1/DTD/svg11.dtd">
<svg version="1.1" id="Layer_1" xmlns="http://www.w3.org/2000/svg" xmlns:xlink="http://www.w3.org/1999/xlink" x="0px" y="0px"
	 width="190.957px" height="93.739px" viewBox="0 0 190.957 93.739" enable-background="new 0 0 190.957 93.739"
	 xml:space="preserve">
<g>
	<path fill="#63A82B" d="M36.182,15.972c-15.496,0-28.06,12.561-28.06,28.059c0,15.496,28.06,48.709,28.06,48.709
		s28.06-33.213,28.06-48.709C64.242,28.534,51.679,15.972,36.182,15.972z M36.182,59.323c-10.06,0-18.215-8.154-18.215-18.215
		c0-10.06,8.156-18.215,18.215-18.215c10.06,0,18.215,8.155,18.215,18.215C54.397,51.167,46.242,59.323,36.182,59.323z"/>
</g>
<path fill="#FFFFFF" d="M83.789,63.028c-0.299-0.72-0.492-0.991-1.048-1.058l-0.237-0.024c-0.086-0.078-0.076-0.26,0.025-0.321
	c0.38,0.025,0.793,0.034,1.35,0.034c0.572,0,1.024-0.009,1.568-0.034c0.092,0.05,0.118,0.243,0.028,0.321l-0.194,0.024
	c-0.494,0.066-0.598,0.142-0.609,0.248c0.024,0.13,0.25,0.826,0.646,1.812c0.598,1.504,1.19,2.991,1.838,4.47
	c0.401-0.855,0.948-2.189,1.243-2.878c0.375-0.88,0.984-2.344,1.205-2.9c0.104-0.272,0.113-0.413,0.113-0.503
	c0-0.094-0.126-0.193-0.579-0.248l-0.231-0.024c-0.093-0.078-0.07-0.271,0.023-0.321c0.361,0.025,0.854,0.034,1.349,0.034
	c0.425,0,0.827-0.009,1.256-0.034c0.09,0.05,0.09,0.253,0.023,0.321l-0.382,0.024c-0.315,0.027-0.508,0.182-0.68,0.455
	c-0.362,0.603-0.868,1.654-1.45,2.975l-0.699,1.595c-0.519,1.193-1.128,2.695-1.349,3.386c-0.038,0.022-0.089,0.037-0.139,0.037
	c-0.063,0-0.133-0.015-0.194-0.037c-0.146-0.546-0.375-1.181-0.595-1.726L83.789,63.028z"/>
<path fill="#FFFFFF" d="M93.103,63.629c0-1.376-0.028-1.593-0.789-1.659l-0.324-0.024c-0.078-0.054-0.056-0.287,0.024-0.321
	c0.646,0.025,1.089,0.034,1.629,0.034c0.521,0,0.961-0.009,1.604-0.034c0.081,0.034,0.108,0.268,0.027,0.321l-0.323,0.024
	c-0.76,0.066-0.786,0.283-0.786,1.659v4.609c0,1.377,0.026,1.556,0.786,1.647l0.323,0.037c0.081,0.051,0.054,0.287-0.027,0.322
	c-0.643-0.022-1.082-0.035-1.604-0.035c-0.54,0-0.983,0.013-1.629,0.035c-0.08-0.035-0.103-0.244-0.024-0.322l0.324-0.037
	c0.761-0.092,0.789-0.271,0.789-1.647V63.629z"/>
<path fill="#FFFFFF" d="M98.213,62.553c0.95-0.735,2.154-1.099,3.501-1.099c0.701,0,1.684,0.144,2.288,0.308
	c0.161,0.04,0.25,0.065,0.368,0.056c0.015,0.294,0.075,1.107,0.182,1.9c-0.068,0.09-0.26,0.105-0.351,0.026
	c-0.199-0.882-0.778-1.892-2.656-1.892c-1.983,0-3.666,1.253-3.666,3.938c0,2.721,1.725,4.223,3.848,4.223
	c1.671,0,2.407-1.088,2.707-1.853c0.092-0.064,0.284-0.039,0.334,0.051c-0.087,0.676-0.425,1.532-0.619,1.776
	c-0.157,0.025-0.311,0.079-0.451,0.131c-0.291,0.104-1.218,0.298-2.047,0.298c-1.166,0-2.28-0.233-3.224-0.87
	c-1.039-0.712-1.842-1.89-1.842-3.563C96.585,64.546,97.231,63.317,98.213,62.553"/>
<path fill="#FFFFFF" d="M106.881,63.601c0-1.348-0.027-1.539-0.789-1.631l-0.206-0.024c-0.081-0.054-0.055-0.287,0.025-0.321
	c0.556,0.025,0.996,0.034,1.527,0.034h2.436c0.828,0,1.592,0,1.746-0.034c0.083,0.221,0.157,1.151,0.209,1.717
	c-0.052,0.076-0.259,0.103-0.326,0.026c-0.193-0.606-0.313-1.06-0.98-1.229c-0.273-0.063-0.689-0.076-1.255-0.076h-0.933
	c-0.391,0-0.391,0.026-0.391,0.521v2.585c0,0.365,0.04,0.365,0.43,0.365h0.749c0.542,0,0.947-0.027,1.1-0.081
	c0.156-0.053,0.25-0.128,0.311-0.452l0.106-0.532c0.063-0.078,0.282-0.078,0.332,0.014c0,0.311-0.05,0.815-0.05,1.31
	c0,0.466,0.05,0.959,0.05,1.244c-0.05,0.092-0.27,0.092-0.332,0.013l-0.117-0.505c-0.05-0.233-0.144-0.427-0.4-0.497
	c-0.181-0.05-0.492-0.063-0.999-0.063h-0.749c-0.39,0-0.43,0.013-0.43,0.349v1.829c0,0.686,0.04,1.127,0.245,1.347
	c0.157,0.153,0.427,0.3,1.569,0.3c0.998,0,1.371-0.056,1.653-0.192c0.238-0.133,0.584-0.585,0.924-1.26
	c0.091-0.066,0.271-0.026,0.319,0.09c-0.089,0.451-0.41,1.452-0.58,1.8c-1.166-0.022-2.316-0.036-3.47-0.036h-1.167
	c-0.558,0-0.999,0.014-1.763,0.036c-0.077-0.036-0.104-0.244-0.025-0.322l0.427-0.037c0.742-0.065,0.804-0.261,0.804-1.621V63.601z"
	/>
<path fill="#FFFFFF" d="M121.609,68.003c0,0.393,0,1.935,0.039,2.269c-0.028,0.076-0.106,0.146-0.246,0.146
	c-0.156-0.223-0.532-0.673-1.659-1.959l-3-3.418c-0.354-0.402-1.235-1.464-1.506-1.75h-0.027c-0.05,0.153-0.064,0.453-0.064,0.839
	v2.826c0,0.611,0.015,2.295,0.232,2.686c0.083,0.14,0.338,0.217,0.661,0.245l0.402,0.037c0.08,0.104,0.069,0.261-0.021,0.322
	c-0.587-0.022-1.042-0.035-1.521-0.035c-0.544,0-0.892,0.013-1.346,0.035c-0.095-0.062-0.105-0.244-0.025-0.322l0.349-0.037
	c0.3-0.039,0.506-0.117,0.569-0.261c0.182-0.466,0.167-2.049,0.167-2.67V63.21c0-0.362-0.012-0.627-0.286-0.93
	c-0.183-0.179-0.487-0.271-0.799-0.311l-0.224-0.024c-0.076-0.078-0.076-0.271,0.028-0.321c0.544,0.034,1.228,0.034,1.462,0.034
	c0.211,0,0.428-0.009,0.598-0.034c0.262,0.656,1.789,2.364,2.215,2.844l1.255,1.41c0.894,1.003,1.529,1.726,2.141,2.348h0.023
	c0.052-0.064,0.052-0.272,0.052-0.542V64.91c0-0.608-0.013-2.29-0.263-2.681c-0.078-0.117-0.284-0.192-0.799-0.259l-0.224-0.024
	c-0.086-0.078-0.075-0.287,0.026-0.321c0.599,0.025,1.035,0.034,1.529,0.034c0.558,0,0.894-0.009,1.338-0.034
	c0.102,0.062,0.102,0.243,0.024,0.321l-0.184,0.024c-0.416,0.066-0.671,0.168-0.724,0.273c-0.225,0.465-0.194,2.073-0.194,2.666
	V68.003z"/>
<path fill="#FFFFFF" d="M128.083,68.265c0,1.36,0.027,1.556,0.776,1.621l0.417,0.037c0.078,0.051,0.05,0.286-0.025,0.322
	c-0.739-0.022-1.181-0.036-1.699-0.036c-0.518,0-0.967,0.014-1.798,0.036c-0.078-0.036-0.103-0.257,0-0.322l0.468-0.037
	c0.734-0.065,0.797-0.261,0.797-1.621v-5.789c0-0.4,0-0.414-0.384-0.414h-0.712c-0.558,0-1.271,0.027-1.596,0.323
	c-0.309,0.284-0.439,0.565-0.578,0.893c-0.104,0.073-0.29,0.013-0.34-0.093c0.208-0.58,0.397-1.408,0.493-1.925
	c0.039-0.027,0.204-0.041,0.244,0c0.081,0.414,0.506,0.399,1.104,0.399h5.245c0.696,0,0.818-0.025,1.006-0.364
	c0.067-0.022,0.212-0.01,0.235,0.041c-0.141,0.531-0.235,1.578-0.197,1.969c-0.046,0.102-0.269,0.102-0.335,0.024
	c-0.037-0.326-0.126-0.8-0.323-0.944c-0.298-0.219-0.789-0.323-1.501-0.323h-0.921c-0.389,0-0.376,0.014-0.376,0.441V68.265z"/>
<path fill="#FFFFFF" d="M133.719,63.601c0-1.348-0.024-1.539-0.787-1.631l-0.211-0.024c-0.077-0.054-0.053-0.287,0.025-0.321
	c0.559,0.025,0.998,0.034,1.531,0.034h2.43c0.829,0,1.595,0,1.755-0.034c0.076,0.221,0.151,1.151,0.201,1.717
	c-0.05,0.076-0.255,0.103-0.322,0.026c-0.191-0.606-0.309-1.06-0.983-1.229c-0.273-0.063-0.687-0.076-1.258-0.076h-0.932
	c-0.386,0-0.386,0.026-0.386,0.521v2.585c0,0.365,0.036,0.365,0.424,0.365h0.75c0.546,0,0.946-0.027,1.101-0.081
	c0.159-0.053,0.248-0.128,0.313-0.452l0.104-0.532c0.063-0.078,0.286-0.078,0.338,0.014c0,0.311-0.052,0.815-0.052,1.31
	c0,0.466,0.052,0.959,0.052,1.244c-0.052,0.092-0.275,0.092-0.338,0.013l-0.116-0.505c-0.053-0.233-0.142-0.427-0.402-0.497
	c-0.18-0.05-0.49-0.063-0.999-0.063h-0.75c-0.388,0-0.424,0.013-0.424,0.349v1.829c0,0.686,0.036,1.127,0.241,1.347
	c0.156,0.153,0.429,0.3,1.567,0.3c1.001,0,1.378-0.056,1.659-0.192c0.237-0.133,0.581-0.585,0.92-1.26
	c0.092-0.066,0.274-0.026,0.324,0.09c-0.092,0.451-0.414,1.452-0.582,1.8c-1.166-0.022-2.321-0.036-3.474-0.036h-1.161
	c-0.559,0-0.999,0.014-1.763,0.036c-0.078-0.036-0.104-0.244-0.028-0.322l0.429-0.037c0.738-0.065,0.804-0.261,0.804-1.621V63.601z"
	/>
<path fill="#FFFFFF" d="M144.908,63.601c0-1.357-0.027-1.564-0.84-1.631l-0.323-0.024c-0.08-0.054-0.053-0.287,0.023-0.321
	c0.727,0.025,1.168,0.034,1.687,0.034c0.504,0,0.942-0.009,1.594-0.034c0.076,0.034,0.104,0.268,0.025,0.321l-0.312,0.024
	c-0.764,0.066-0.792,0.273-0.792,1.631v4.511c0,0.814,0.039,1.151,0.274,1.396c0.141,0.142,0.388,0.3,1.413,0.3
	c1.1,0,1.371-0.056,1.579-0.167c0.259-0.158,0.597-0.623,0.854-1.285c0.081-0.066,0.32-0.012,0.32,0.079
	c0,0.142-0.358,1.463-0.54,1.811c-0.661-0.022-1.892-0.036-3.226-0.036h-1.191c-0.547,0-0.96,0.014-1.687,0.036
	c-0.076-0.036-0.104-0.244-0.023-0.322l0.386-0.037c0.75-0.078,0.777-0.261,0.777-1.621V63.601z"/>
<path fill="#FFFFFF" d="M151.046,66.022c0-2.59,1.945-4.567,4.613-4.567c2.992,0,4.494,2.157,4.494,4.44
	c0,2.617-1.994,4.523-4.494,4.523C152.784,70.418,151.046,68.356,151.046,66.022 M158.86,66.298c0-2.142-0.946-4.445-3.418-4.445
	c-1.351,0-3.098,0.923-3.098,3.757c0,1.917,0.934,4.404,3.486,4.404C157.386,70.014,158.86,68.847,158.86,66.298"/>
<path fill="#FFFFFF" d="M163.667,68.265c0,1.36,0.022,1.53,0.854,1.621l0.35,0.037c0.075,0.065,0.052,0.286-0.026,0.322
	c-0.739-0.022-1.168-0.036-1.683-0.036c-0.549,0-1.015,0.014-1.582,0.036c-0.08-0.036-0.105-0.244-0.027-0.322l0.273-0.037
	c0.749-0.104,0.777-0.261,0.777-1.621v-4.78c0-1.1-0.028-1.318-0.609-1.383l-0.469-0.052c-0.091-0.08-0.077-0.273,0.027-0.325
	c0.688-0.091,1.491-0.101,2.567-0.101c1.075,0,1.878,0.139,2.488,0.514c0.588,0.377,1.03,1.047,1.03,1.941
	c0,1.193-0.738,1.788-1.293,2.06c-0.569,0.272-1.254,0.389-1.79,0.389c-0.087-0.038-0.087-0.229-0.01-0.257
	c1.399-0.258,1.903-1.051,1.903-2.178c0-1.256-0.736-2.068-2.085-2.068c-0.688,0-0.697,0.051-0.697,0.463V68.265z"/>
<path fill="#FFFFFF" d="M169.752,63.601c0-1.348-0.028-1.539-0.791-1.631l-0.209-0.024c-0.075-0.054-0.051-0.287,0.028-0.321
	c0.558,0.025,0.998,0.034,1.527,0.034h2.434c0.831,0,1.593,0,1.752-0.034c0.076,0.221,0.156,1.151,0.206,1.717
	c-0.05,0.076-0.262,0.103-0.32,0.026c-0.195-0.606-0.313-1.06-0.986-1.229c-0.271-0.063-0.69-0.076-1.256-0.076h-0.936
	c-0.388,0-0.388,0.026-0.388,0.521v2.585c0,0.365,0.039,0.365,0.428,0.365h0.753c0.544,0,0.945-0.027,1.1-0.081
	c0.155-0.053,0.244-0.128,0.313-0.452l0.099-0.532c0.066-0.078,0.288-0.078,0.339,0.014c0,0.311-0.051,0.815-0.051,1.31
	c0,0.466,0.051,0.959,0.051,1.244c-0.051,0.092-0.272,0.092-0.339,0.013l-0.113-0.505c-0.055-0.233-0.144-0.427-0.401-0.497
	c-0.183-0.05-0.491-0.063-0.997-0.063h-0.753c-0.389,0-0.428,0.013-0.428,0.349v1.829c0,0.686,0.039,1.127,0.246,1.347
	c0.156,0.153,0.428,0.3,1.566,0.3c0.999,0,1.373-0.056,1.66-0.192c0.236-0.133,0.577-0.585,0.917-1.26
	c0.09-0.066,0.272-0.026,0.324,0.09c-0.091,0.451-0.415,1.452-0.581,1.8c-1.164-0.022-2.32-0.036-3.472-0.036h-1.167
	c-0.556,0-0.998,0.014-1.761,0.036c-0.078-0.036-0.104-0.244-0.027-0.322l0.429-0.037c0.734-0.065,0.804-0.261,0.804-1.621V63.601z"
	/>
<path fill="#FFFFFF" d="M180.412,64.351c0.677-0.959,1.052-1.451,1.257-1.836c0.091-0.154,0.155-0.262,0.155-0.35
	c0-0.063-0.126-0.104-0.466-0.104h-1.932c-1.034,0-1.615,0.09-1.93,0.426c-0.271,0.299-0.464,0.657-0.568,0.88
	c-0.116,0.05-0.273,0.012-0.328-0.09c0.159-0.457,0.381-1.229,0.534-1.941c0.05-0.041,0.154-0.041,0.223,0
	c0.034,0.313,0.231,0.322,1.278,0.322h3.422c0.929,0,1.347-0.009,1.485-0.034c0.053,0.01,0.078,0.062,0.078,0.115
	c-0.348,0.297-1.446,1.795-2.123,2.77l-2.133,3.084c-0.144,0.206-1.287,1.813-1.287,2.009c0,0.126,0.128,0.15,0.368,0.179
	c0.332,0.027,1.006,0.027,1.914,0.027c0.829,0,1.906-0.027,2.396-0.3c0.375-0.206,0.685-0.685,0.904-1.191
	c0.118-0.039,0.286-0.027,0.324,0.089c-0.117,0.598-0.376,1.518-0.581,1.84c-0.711-0.022-1.45-0.036-2.356-0.036h-3.332
	c-0.683,0-1.151,0.024-1.449,0.036c-0.053-0.022-0.065-0.09-0.065-0.153c0.271-0.258,1.013-1.181,1.412-1.763L180.412,64.351z"/>
<rect x="82.609" y="75.672" fill="#FFFFFF" width="102.854" height="0.761"/>
<rect x="82.609" y="55.62" fill="#FFFFFF" width="13.303" height="0.761"/>
<path fill="#FFFFFF" d="M167.102,55.634c0,0,0.239,0.664-2.778,0.664c-0.142,0-1.591-0.468-1.591-0.664h-50.635v0.849h73.364v-0.849
	H167.102z"/>
<path fill="#FFFFFF" d="M111.366,55.996c0-0.424,0.462-0.502,0.77-0.502c0.35,0,1.922,0,1.922-0.65c0-0.542-0.308-1.084-0.496-1.537
	l-5.271-12.509c-0.537-1.268-1.464-3.619-1.619-3.619c-0.153,0-1.036,2.352-1.574,3.619l-4.735,11.621
	c-0.19,0.537-0.536,1.38-0.536,1.96c0,1.076,1.157,1.076,2.112,1.076c0.501,0,1.194,0.039,1.194,0.462
	c0,0.464-0.462,0.512-0.846,0.512c-1.077,0-2.231-0.089-3.308-0.089c-1.082,0-3.267,0.041-3.985,0.041
	c-0.307,0,0.214-0.041,0.214-0.385c0-0.172-0.471-0.376-0.314-0.376c0.789,0,1.403-0.01,1.986-0.204
	c1.245-0.411,1.789-1.688,2.676-3.88c2.5-6.121,5.003-12.24,7.503-18.397c0.116-0.305,0.345-1.075,0.654-1.075
	c0.27,0,0.424,0.537,0.654,1.075c2.729,6.581,5.501,13.16,8.272,19.746c0.5,1.188,0.749,2.226,2.062,2.531
	c0.953,0.226,1.124,0.219,2.252,0.219c0.5,0-0.927,0.658-1.274,0.658c-1.08,0-2.693,0.047-4.078,0.047
	c-1.155,0-2.656,0.158-3.501,0.158c-0.386,0-0.732,0-0.732-0.465V55.996z"/>
<path fill="#FFFFFF" d="M123.024,34.912c0-2.887,0-3.118-1.886-3.118c-0.307,0-0.614-0.038-0.614-0.386
	c0-0.269,0.308-0.385,0.541-0.422c1.078-0.192,2.616-0.501,3.464-1.194c0.191-0.153,0.537-0.422,0.846-0.422
	c0.308,0,0.308,0.192,0.308,0.615v22.434c0,2.157-0.066,3.216,1.792,3.216c0.386,0,1.014-0.023,1.014,0.442
	c0,0.304-0.104,0.135-0.372,0.135c-1.23,0-2.552,0.128-3.706,0.128c-1.229,0-2.632-0.128-3.827-0.128
	c-0.269,0-0.365,0.207-0.365-0.098c0-0.604-0.284-0.425,1.064-0.506c1.824-0.11,1.742-0.884,1.742-3.189V34.912z"/>
<path fill="#FFFFFF" d="M136.471,45.182c0-2.383-0.19-2.769-1.501-2.769c-0.691,0-0.96,0-0.96-0.31c0-0.461,0.538-0.538,0.885-0.654
	c0.923-0.269,2.575-1.269,3.191-1.999c0.193-0.192,0.388-0.5,0.695-0.5c0.344,0,0.344,0.229,0.344,0.616v1.883
	c0,0.618,0,0.808,0.191,0.808c0.194,0,0.658-0.769,1.428-1.536c0.769-0.771,1.807-1.541,3.114-1.541
	c1.155,0,2.191,0.694,2.191,1.846c0,0.963-0.689,1.541-1.614,1.541c-0.655,0-1.003-0.387-1.308-0.731
	c-0.308-0.386-0.615-0.731-1.154-0.731c-0.848,0-1.5,0.808-1.964,1.387c-0.885,1.271-0.885,2.153-0.885,3.845v6.083
	c0,2,0.061,3.216,1.986,3.216c0.383,0,1.21-0.063,1.21,0.442c0,0.304-0.194,0.199-0.618,0.199c-1.114,0-2.461,0.063-3.729,0.063
	c-1.348,0-2.753-0.099-3.944-0.099c-0.272,0-0.37,0.178-0.37-0.127c0-0.542,0.596-0.479,1.019-0.479
	c1.731,0,1.793-1.216,1.793-3.216V45.182z"/>
<path fill="#FFFFFF" d="M149.985,37.035c-0.117,0-0.231-0.155-0.231-0.308c0-0.312,0.615-0.616,0.771-0.733l5.118-3.809
	c0.538-0.423,1.307-1.039,2.037-1.039c0.5,0,0.963,0.425,0.963,0.961c0,0.961-1.197,1.348-1.926,1.731l-5.578,2.772
	c-0.23,0.116-0.848,0.424-1.114,0.424H149.985z M149.869,45.182c0-2.383-0.191-2.769-1.499-2.769c-0.694,0-0.962,0-0.962-0.31
	c0-0.461,0.539-0.538,0.886-0.654c0.923-0.269,2.578-1.269,3.194-1.999c0.192-0.23,0.385-0.5,0.693-0.5
	c0.345,0,0.345,0.229,0.345,0.616v1.845v11.007c0,2.156,0,3.216,1.731,3.216c0.382,0,1.078,0.101,1.078,0.442
	c0,0.304-0.195,0.169-0.462,0.169c-1.233,0-2.465,0.094-3.616,0.094c-1.231,0-2.463-0.041-3.658-0.041
	c-0.269,0-0.537,0.12-0.537-0.185c0-0.542,0.652-0.479,1.075-0.479c1.731,0,1.731-0.91,1.731-3.216V45.182z"/>
<path fill="#FFFFFF" d="M164.766,56.483c-5.156,0-9.505-3.489-9.505-8.758c0-4.235,3.195-8.774,9.542-8.774
	c6.309,0,9.541,4.5,9.541,8.774c0,5.269-4.385,8.758-9.541,8.758H164.766z M164.958,55.7c4.118,0,6.464-4.049,6.464-7.708
	c0-3.884-2.191-8.311-6.655-8.311c-4.232,0-6.618,3.925-6.618,7.848c0,3.809,2.424,8.171,6.77,8.171H164.958z"/>
<path fill="#FFFFFF" d="M103.867,46.923c0,0,2.81,0.637,3.515,3.28c1.659,6.208-6.118,15.508-6.118,15.508s4.389-8.745,4.263-14.103
	C105.446,48.047,103.867,46.923,103.867,46.923"/>
<path fill="#FFFFFF" d="M108.09,52.079c0.016,5.869-6.324,13.165-6.788,13.692c-0.008,0.009-0.016,0.018-0.016,0.018
	s2.468-0.828,3.999-1.602c1.962-0.99,3.69-1.88,4.89-4.21C112.355,55.732,108.709,52.57,108.09,52.079"/>
</svg>
