<?xml version="1.0" encoding="utf-8"?>
<!-- Generator: Adobe Illustrator 16.0.0, SVG Export Plug-In . SVG Version: 6.00 Build 0)  -->
<!DOCTYPE svg PUBLIC "-//W3C//DTD SVG 1.1//EN" "http://www.w3.org/Graphics/SVG/1.1/DTD/svg11.dtd">
<svg version="1.1" xmlns="http://www.w3.org/2000/svg" xmlns:xlink="http://www.w3.org/1999/xlink" x="0px" y="0px" width="250px"
	 height="89.333px" viewBox="0 0 250 89.333" enable-background="new 0 0 250 89.333" xml:space="preserve">
<g id="Capa_1">
	<g>
		<path fill="#3E3B3F" d="M244.78,64.194h-38.004c7.206-3.095,12.298-9.656,12.298-18.285c0-9.883-7.475-20.29-22.061-20.29
			c-14.675,0-22.063,10.495-22.063,20.29c0,8.629,5.049,15.19,12.231,18.285H172.63c-4.003,0-4.003-2.45-4.003-7.434V31.31v-4.266
			c0-0.895,0-1.424-0.799-1.424c-0.712,0-1.158,0.625-1.603,1.156c-1.425,1.69-5.252,4.002-7.386,4.623
			c-0.8,0.269-2.047,0.447-2.047,1.513c0,0.716,0.619,0.716,2.224,0.716c3.024,0,3.466,0.891,3.466,6.4v16.732
			c0,5.33,0,7.434-4.002,7.434c-0.26,0-0.557-0.008-0.853,0h-14.484c-0.34-0.009-0.664,0-0.909,0c-4.452,0-4.592-2.811-4.592-7.434
			V42.696c0-3.91,0-5.953,2.046-8.891c1.072-1.337,2.581-3.206,4.541-3.206c1.246,0,1.958,0.799,2.669,1.69
			c0.704,0.799,1.507,1.691,3.023,1.691c2.138,0,3.732-1.336,3.732-3.562c0-2.664-2.396-4.27-5.068-4.27
			c-3.023,0-5.423,1.784-7.199,3.564c-1.779,1.774-2.852,3.552-3.302,3.552c-0.442,0-0.442-0.439-0.442-1.868v-4.354
			c0-0.895,0-1.424-0.795-1.424c-0.711,0-1.161,0.71-1.607,1.156c-1.424,1.69-5.246,4.002-7.379,4.623
			c-0.802,0.269-2.045,0.447-2.045,1.513c0,0.716,0.62,0.716,2.219,0.716c3.03,0,3.472,0.891,3.472,6.4v16.732
			c0,4.623-0.143,7.434-4.146,7.434c-0.26,0-0.547-0.008-0.829,0h-15.465c-0.127,0-0.249,0-0.362,0
			c-4.296,0-4.144-2.448-4.144-7.434V4.891c0-0.978,0-1.422-0.71-1.422c-0.713,0-1.515,0.621-1.957,0.975
			c-1.958,1.603-5.516,2.316-8.01,2.762c-0.537,0.085-1.249,0.355-1.249,0.975c0,0.805,0.712,0.893,1.421,0.893
			c4.359,0,4.359,0.536,4.359,7.21v40.478c0,5.33,0.189,7.12-4.028,7.375c-0.616,0.037-1.081,0.05-1.436,0.059
			c-2.01-0.001-2.54-0.032-4.534-0.504c-3.036-0.706-3.612-3.104-4.768-5.854C79.242,42.609,72.834,27.397,66.522,12.18
			c-0.533-1.243-0.888-2.485-1.513-2.485c-0.716,0-1.243,1.781-1.513,2.485c-5.78,14.236-11.568,28.386-17.348,42.538
			c-2.049,5.067-3.309,8.021-6.186,8.971c-1.332,0.444-2.739,0.472-4.535,0.472H6.968v1.76h30.758v-0.019
			c2.223-0.027,5.304-0.075,7.09-0.075c2.488,0,5.157,0.204,7.649,0.204c0.886,0,1.954-0.11,1.954-1.184
			c0-0.976-1.602-1.066-2.76-1.066c-2.209,0-4.885,0-4.885-2.489c0-1.342,0.8-3.291,1.239-4.532l10.949-26.87
			c1.244-2.931,3.285-8.368,3.642-8.368c0.358,0,2.5,5.437,3.744,8.368l12.187,28.922c0.438,1.048,1.148,2.301,1.148,3.554
			c0,1.505-3.635,1.505-4.445,1.505c-0.71,0-1.779,0.179-1.779,1.16v0.086c0,1.075,0.802,1.075,1.694,1.075
			c0.348,0,0.756-0.014,1.187-0.033H244.78V64.194z M196.927,27.309c10.323,0,15.388,10.236,15.388,19.217
			c0,8.46-5.422,17.821-14.943,17.821h-0.095c-10.046,0-15.65-10.087-15.65-18.892C181.626,36.384,187.142,27.309,196.927,27.309z"
			/>
		<path fill="#3E3B3F" d="M162.752,21.189h0.089c0.618,0,2.045-0.71,2.576-0.979l12.898-6.411c1.686-0.887,4.453-1.78,4.453-4.002
			c0-1.239-1.07-2.222-2.228-2.222c-1.688,0-3.466,1.425-4.709,2.402l-11.834,8.807c-0.358,0.27-1.782,0.975-1.782,1.695
			C162.216,20.832,162.481,21.189,162.752,21.189z"/>
	</g>
</g>
<g id="Capa_2">
	<path fill="#3C6D34" d="M56.119,44.055c0,0,6.496,1.473,8.127,7.585c3.835,14.354-14.146,35.855-14.146,35.855
		s10.148-20.219,9.855-32.607C59.771,46.654,56.119,44.055,56.119,44.055"/>
	<path fill="#459443" d="M65.886,55.974c0.035,13.571-14.624,30.44-15.694,31.659c-0.02,0.021-0.038,0.041-0.038,0.041
		s5.707-1.914,9.246-3.703c4.538-2.29,8.534-4.347,11.305-9.733C75.746,64.421,67.318,57.111,65.886,55.974"/>
</g>
</svg>
