<?xml version="1.0" encoding="utf-8"?>
<!-- Generator: Adobe Illustrator 16.0.0, SVG Export Plug-In . SVG Version: 6.00 Build 0)  -->
<!DOCTYPE svg PUBLIC "-//W3C//DTD SVG 1.1//EN" "http://www.w3.org/Graphics/SVG/1.1/DTD/svg11.dtd">
<svg version="1.1" xmlns="http://www.w3.org/2000/svg" xmlns:xlink="http://www.w3.org/1999/xlink" x="0px" y="0px" width="30px"
	 height="20px" viewBox="0 0 30 20" enable-background="new 0 0 30 20" xml:space="preserve">
<g id="menuCenter">
	<path opacity="0" d="M30,10c0,1.474-1.194,2.669-2.669,2.669H2.668C1.194,12.669,0,11.474,0,10l0,0
		c0-1.474,1.194-2.668,2.668-2.668h24.663C28.806,7.331,30,8.526,30,10L30,10z"/>
</g>
<g id="menuTop">
	<path d="M27.176,1.238c0.86,1.197,0.589,2.865-0.607,3.727L6.549,19.369c-1.196,0.86-2.864,0.588-3.725-0.608l0,0
		c-0.86-1.196-0.588-2.863,0.607-3.725L23.45,0.632C24.647-0.23,26.315,0.042,27.176,1.238L27.176,1.238z"/>
</g>
<g id="menuBottom">
	<path d="M27.127,18.829c-0.868,1.19-2.536,1.455-3.729,0.588L3.459,4.899C2.268,4.032,2.006,2.363,2.874,1.171l0,0
		C3.741-0.02,5.41-0.283,6.601,0.584L26.54,15.1C27.731,15.969,27.994,17.637,27.127,18.829L27.127,18.829z"/>
</g>
</svg>
