<?xml version="1.0" encoding="utf-8"?>
<!-- Generator: Adobe Illustrator 16.0.0, SVG Export Plug-In . SVG Version: 6.00 Build 0)  -->
<!DOCTYPE svg PUBLIC "-//W3C//DTD SVG 1.1//EN" "http://www.w3.org/Graphics/SVG/1.1/DTD/svg11.dtd">
<svg version="1.1" xmlns="http://www.w3.org/2000/svg" xmlns:xlink="http://www.w3.org/1999/xlink" x="0px" y="0px" width="30px"
	 height="20px" viewBox="0 0 30 20" enable-background="new 0 0 30 20" xml:space="preserve">
<g id="menuTop">
	<path id='palo3' fill="#000" d="M30,17.33c0,1.475-1.194,2.67-2.669,2.67H2.668C1.194,20,0,18.805,0,17.33l0,0c0-1.473,1.194-2.668,2.668-2.668h24.663
		C28.806,14.662,30,15.857,30,17.33L30,17.33z"/>
</g>
<g id="menuCenter">
	<path id='palo2' fill="#000" d="M30,9.999c0,1.475-1.194,2.67-2.669,2.67H2.668C1.194,12.669,0,11.474,0,9.999l0,0
		c0-1.473,1.194-2.668,2.668-2.668h24.663C28.806,7.331,30,8.526,30,9.999L30,9.999z"/>
</g>
<g id="menuBottom">
	<path id='palo1' fill="#000" d="M30,2.669c0,1.474-1.194,2.668-2.669,2.668H2.668C1.194,5.337,0,4.143,0,2.669l0,0C0,1.194,1.194,0,2.668,0h24.663
		C28.806,0,30,1.194,30,2.669L30,2.669z"/>
</g>
</svg>
